<svg version="1.2" xmlns="http://www.w3.org/2000/svg" viewBox="0 0 1024 1024" width="1024" height="1024">
	<title>blendbubbles</title>
	<style>
		.s0 { fill: #42a85e } 
		.s1 { fill: #ffffff } 
	</style>
	<path id="Ellipse 1" fill-rule="evenodd" class="s0" d="m303.6 319.4c154.9 0 280.6 125.7 280.6 280.9 0 155.1-125.7 280.8-280.6 280.8-155 0-280.6-125.7-280.6-280.8 0-155.2 125.6-280.9 280.6-280.9z"/>
	<path id="Ellipse 1 copy" fill-rule="evenodd" class="s0" d="m543.6 44c90 0 162.9 73 162.9 163 0 90.1-72.9 163.1-162.9 163.1-89.9 0-162.8-73-162.8-163.1 0-90 72.9-163 162.8-163z"/>
	<path id="Ellipse 1 copy 3" fill-rule="evenodd" class="s0" d="m802.8 584.2c109.5 0 198.2 88.8 198.2 198.4 0 109.6-88.7 198.4-198.2 198.4-109.4 0-198.1-88.8-198.1-198.4 0-109.6 88.7-198.4 198.1-198.4z"/>
	<path id="Ellipse 2" fill-rule="evenodd" class="s1" d="m590.1 95.5c22.8 0 41.2 18.5 41.2 41.3 0 22.8-18.4 41.2-41.2 41.2-22.8 0-41.2-18.4-41.2-41.2 0-22.8 18.4-41.3 41.2-41.3z"/>
	<path id="Ellipse 2 copy" fill-rule="evenodd" class="s1" d="m284 350.8c53.4 0 96.8 43.4 96.8 96.9 0 53.5-43.4 96.9-96.8 96.9-53.5 0-96.8-43.4-96.8-96.9 0-53.5 43.3-96.9 96.8-96.9z"/>
	<path id="Ellipse 2 copy 2" fill-rule="evenodd" class="s1" d="m462.5 541c32.5 0 58.9 26.4 58.9 58.9 0 32.6-26.4 58.9-58.9 58.9-32.5 0-58.9-26.3-58.9-58.9 0-32.5 26.4-58.9 58.9-58.9z"/>
</svg>